<?xml version="1.0" encoding="UTF-8" standalone="no"?>
<!-- Created with Inkscape (http://www.inkscape.org/) -->

<svg
   width="600"
   height="400"
   viewBox="0 0 158.75 105.83333"
   version="1.1"
   id="svg1"
   sodipodi:docname="missing.svg"
   inkscape:version="1.3.1 (9b9bdc1480, 2023-11-25, custom)"
   xmlns:inkscape="http://www.inkscape.org/namespaces/inkscape"
   xmlns:sodipodi="http://sodipodi.sourceforge.net/DTD/sodipodi-0.dtd"
   xmlns="http://www.w3.org/2000/svg"
   xmlns:svg="http://www.w3.org/2000/svg">
  <sodipodi:namedview
     id="namedview1"
     pagecolor="#ffffff"
     bordercolor="#cccccc"
     borderopacity="1"
     inkscape:showpageshadow="0"
     inkscape:pageopacity="1"
     inkscape:pagecheckerboard="0"
     inkscape:deskcolor="#d1d1d1"
     inkscape:document-units="mm"
     inkscape:zoom="1.475"
     inkscape:cx="300"
     inkscape:cy="200"
     inkscape:window-width="1452"
     inkscape:window-height="701"
     inkscape:window-x="50"
     inkscape:window-y="113"
     inkscape:window-maximized="0"
     inkscape:current-layer="layer1" />
  <defs
     id="defs1" />
  <g
     inkscape:label="Layer 1"
     inkscape:groupmode="layer"
     id="layer1">
    <rect
       style="fill:#440082;fill-opacity:1;stroke:#000000;stroke-width:0;stroke-linejoin:bevel;paint-order:stroke fill markers"
       id="rect1-7-8"
       width="186.9668"
       height="132.60313"
       x="-14.108404"
       y="-13.384895" />
    <rect
       style="fill:#5600a4;fill-opacity:1;stroke:#000000;stroke-width:0;stroke-linejoin:bevel;paint-order:stroke fill markers"
       id="rect1"
       width="93.483398"
       height="66.301567"
       x="-14.108405"
       y="-13.384896" />
    <rect
       style="fill:#5600a4;fill-opacity:1;stroke:#000000;stroke-width:0;stroke-linejoin:bevel;paint-order:stroke fill markers"
       id="rect1-7"
       width="93.483398"
       height="66.301567"
       x="79.374992"
       y="52.916672" />
    <path
       d="m 37.651484,45.165087 h 2.541048 l 6.184464,11.66827 v -11.66827 h 1.83105 v 13.94774 h -2.541049 l -6.184464,-11.66827 v 11.66827 h -1.831049 z m 18.291812,4.689729 q -1.382629,0 -2.186049,1.083682 -0.803419,1.074341 -0.803419,2.952101 0,1.87776 0.794077,2.961442 0.80342,1.074341 2.195391,1.074341 1.373288,0 2.176707,-1.083683 0.80342,-1.083682 0.80342,-2.9521 0,-1.859076 -0.80342,-2.942759 -0.803419,-1.093024 -2.176707,-1.093024 z m 0,-1.457366 q 2.242102,0 3.521968,1.457366 1.279867,1.457366 1.279867,4.035783 0,2.569075 -1.279867,4.035783 -1.279866,1.457366 -3.521968,1.457366 -2.251443,0 -3.53131,-1.457366 -1.270524,-1.466708 -1.270524,-4.035783 0,-2.578417 1.270524,-4.035783 1.279867,-1.457366 3.53131,-1.457366 z m 15.694712,4.054467 v 5.110123 h 3.026838 q 1.52276,0 2.251443,-0.62592 0.738026,-0.635262 0.738026,-1.933812 0,-1.307893 -0.738026,-1.924471 -0.728683,-0.62592 -2.251443,-0.62592 z m 0,-5.736043 v 4.20394 h 2.793285 q 1.38263,0 2.05526,-0.513815 0.681973,-0.523157 0.681973,-1.588155 0,-1.055656 -0.681973,-1.578813 -0.67263,-0.523157 -2.05526,-0.523157 z m -1.887102,-1.550787 h 4.820519 q 2.158023,0 3.325784,0.89684 1.167761,0.896841 1.167761,2.550391 0,1.279866 -0.597894,2.036576 -0.597893,0.756709 -1.756313,0.943551 1.391972,0.298947 2.158023,1.25184 0.775394,0.943551 0.775394,2.363549 0,1.868418 -1.270525,2.886705 -1.270524,1.018288 -3.615388,1.018288 h -5.007361 z m 17.806024,8.688144 q -2.083286,0 -2.886705,0.476446 -0.80342,0.476447 -0.80342,1.625524 0,0.915525 0.597894,1.457366 0.607235,0.532499 1.644207,0.532499 1.42934,0 2.288813,-1.008946 0.868814,-1.018288 0.868814,-2.699864 v -0.383025 z m 3.428548,-0.709999 v 5.969595 h -1.718945 v -1.588155 q -0.588552,0.952893 -1.466708,1.410656 -0.878157,0.44842 -2.148681,0.44842 -1.606839,0 -2.559733,-0.896841 -0.943551,-0.906182 -0.943551,-2.419601 0,-1.765655 1.177104,-2.662496 1.186445,-0.89684 3.53131,-0.89684 h 2.410259 v -0.168158 q 0,-1.186446 -0.784736,-1.83105 -0.775393,-0.653946 -2.186049,-0.653946 -0.89684,0 -1.746971,0.214868 -0.85013,0.214868 -1.634865,0.644604 v -1.588155 q 0.943551,-0.364342 1.831049,-0.541841 0.887499,-0.186842 1.728287,-0.186842 2.270128,0 3.391179,1.177103 1.121051,1.177104 1.121051,3.568679 z m 12.238142,-0.345658 v 6.315253 h -1.71895 v -6.2592 q 0,-1.485392 -0.57921,-2.223418 -0.57921,-0.738025 -1.737627,-0.738025 -1.391972,0 -2.195391,0.887499 -0.80342,0.887498 -0.80342,2.419601 v 5.913543 H 94.460735 V 48.649686 h 1.728287 v 1.625524 q 0.616578,-0.943551 1.448024,-1.410656 0.840788,-0.467104 1.933813,-0.467104 1.803021,0 2.727891,1.121051 0.92487,1.111708 0.92487,3.279073 z m 12.12603,0 v 6.315253 h -1.71895 v -6.2592 q 0,-1.485392 -0.5792,-2.223418 -0.57921,-0.738025 -1.73763,-0.738025 -1.39197,0 -2.19539,0.887499 -0.80342,0.887498 -0.80342,2.419601 v 5.913543 h -1.72829 V 48.649686 h 1.72829 v 1.625524 q 0.61657,-0.943551 1.44802,-1.410656 0.84079,-0.467104 1.93381,-0.467104 1.80303,0 2.72789,1.121051 0.92487,1.111708 0.92487,3.279073 z m 12.37827,0.653947 v 0.840788 h -7.90341 q 0.1121,1.774997 1.065,2.709206 0.96223,0.924867 2.67183,0.924867 0.99027,0 1.91513,-0.242895 0.93421,-0.242894 1.84974,-0.728683 v 1.625524 q -0.92487,0.392368 -1.89645,0.597894 -0.97158,0.205526 -1.97118,0.205526 -2.50368,0 -3.97039,-1.457366 -1.45736,-1.457366 -1.45736,-3.942362 0,-2.569075 1.38263,-4.073152 1.39197,-1.513418 3.74617,-1.513418 2.11132,0 3.33513,1.363945 1.23316,1.354603 1.23316,3.690126 z m -1.71895,-0.504473 q -0.0187,-1.410656 -0.79408,-2.251444 -0.76605,-0.840788 -2.03657,-0.840788 -1.43868,0 -2.3075,0.812762 -0.85947,0.812762 -0.99026,2.288812 z m 10.60327,-2.690522 q -0.2896,-0.168158 -0.63526,-0.242895 -0.33631,-0.08408 -0.74737,-0.08408 -1.45736,0 -2.2421,0.952893 -0.77539,0.943551 -0.77539,2.718548 v 5.511833 h -1.72829 V 48.649686 h 1.72829 v 1.625524 q 0.54184,-0.952893 1.41066,-1.410656 0.86881,-0.467104 2.11131,-0.467104 0.1775,0 0.39237,0.02803 0.21486,0.01868 0.47644,0.06539 z"
       id="text1"
       style="font-size:19.1326px;font-family:'Nachlieli CLM';-inkscape-font-specification:'Nachlieli CLM, Normal';fill:#ffffff;stroke:#000000;stroke-width:0;stroke-linejoin:bevel;paint-order:stroke fill markers"
       aria-label="No Banner" />
    <path
       d="m 59.899237,64.984265 q -0.347068,0.595715 -0.515422,1.178479 -0.168354,0.582764 -0.168354,1.181069 0,0.598305 0.168354,1.186249 0.170944,0.585355 0.515422,1.178479 h -0.41441 q -0.388509,-0.608665 -0.582764,-1.196609 -0.191665,-0.587945 -0.191665,-1.168119 0,-0.577584 0.191665,-1.162938 0.191665,-0.585355 0.582764,-1.19661 z m 2.237815,0.673417 -0.709677,1.924417 h 1.421945 z m -0.295267,-0.515423 h 0.593124 l 1.473747,3.866965 H 63.364742 L 63.012494,68.01723 h -1.743113 l -0.352249,0.991994 h -0.551683 z m 2.988933,0.142454 v 0.82364 h 0.981634 v 0.370379 h -0.981634 v 1.574759 q 0,0.354838 0.09583,0.455851 0.09842,0.101012 0.396279,0.101012 h 0.489522 v 0.39887 H 65.32283 q -0.551683,0 -0.761478,-0.204615 -0.209795,-0.207205 -0.209795,-0.751118 v -1.574759 h -0.349659 v -0.370379 h 0.349659 v -0.82364 z m 3.294561,-0.305628 h 0.476572 v 4.030139 h -0.476572 z m 3.955027,2.46056 v 0.233106 h -2.191194 q 0.03108,0.492112 0.295268,0.751119 0.266776,0.256416 0.740758,0.256416 0.274547,0 0.530963,-0.06734 0.259006,-0.06734 0.512832,-0.202025 v 0.450671 q -0.256416,0.108783 -0.525783,0.165764 -0.269366,0.05698 -0.546503,0.05698 -0.694137,0 -1.100777,-0.40405 -0.40405,-0.40405 -0.40405,-1.093007 0,-0.712267 0.38333,-1.129268 0.385919,-0.41959 1.038615,-0.41959 0.585354,0 0.924653,0.378149 0.341888,0.37556 0.341888,1.023075 z m -0.476572,-0.139863 q -0.0052,-0.3911 -0.220155,-0.624205 -0.212385,-0.233106 -0.564634,-0.233106 -0.39887,0 -0.639745,0.225336 -0.238286,0.225335 -0.274547,0.634565 z m 2.577114,0.251236 q -0.577584,0 -0.80033,0.132093 -0.222745,0.132094 -0.222745,0.450671 0,0.253827 0.165764,0.40405 0.168354,0.147634 0.455851,0.147634 0.39628,0 0.634566,-0.279727 0.240875,-0.282317 0.240875,-0.748528 v -0.106193 z m 0.950553,-0.196845 v 1.655051 h -0.476572 v -0.440311 q -0.163174,0.264187 -0.40664,0.3911 -0.243466,0.124323 -0.595714,0.124323 -0.445491,0 -0.709678,-0.248646 -0.261596,-0.251236 -0.261596,-0.670827 0,-0.489522 0.326348,-0.738168 0.328938,-0.248646 0.979044,-0.248646 h 0.668236 v -0.04662 q 0,-0.328938 -0.217565,-0.507653 -0.214975,-0.181304 -0.606075,-0.181304 -0.248646,0 -0.484342,0.05957 -0.235695,0.05957 -0.453261,0.178715 v -0.440311 q 0.261597,-0.101012 0.507653,-0.150224 0.246056,-0.0518 0.479161,-0.0518 0.629386,0 0.940193,0.326348 0.310808,0.326348 0.310808,0.989404 z m 2.830938,-1.160348 v 0.450671 q -0.202025,-0.103603 -0.41959,-0.155404 -0.217565,-0.0518 -0.450671,-0.0518 -0.354839,0 -0.533553,0.108783 -0.176125,0.108782 -0.176125,0.326348 0,0.165764 0.126914,0.261596 0.126913,0.09324 0.510242,0.178714 l 0.163174,0.03626 q 0.507652,0.108783 0.720038,0.308218 0.214975,0.196845 0.214975,0.551683 0,0.40405 -0.321168,0.639746 -0.318578,0.235696 -0.878031,0.235696 -0.233106,0 -0.486932,-0.04662 -0.251237,-0.04403 -0.530963,-0.134684 v -0.492112 q 0.264186,0.137274 0.520602,0.207205 0.256417,0.06734 0.507653,0.06734 0.336708,0 0.518013,-0.113963 0.181304,-0.116553 0.181304,-0.326348 0,-0.194255 -0.132093,-0.297857 -0.129503,-0.103603 -0.572404,-0.199435 l -0.165764,-0.03885 q -0.442901,-0.09324 -0.639746,-0.284907 -0.196845,-0.194255 -0.196845,-0.530963 0,-0.40923 0.290087,-0.631975 0.290087,-0.222746 0.82364,-0.222746 0.264187,0 0.497293,0.03885 0.233105,0.03885 0.42995,0.116553 z m 1.385686,-0.909112 v 0.82364 h 0.981634 v 0.370379 h -0.981634 v 1.574759 q 0,0.354838 0.09583,0.455851 0.09842,0.101012 0.39628,0.101012 h 0.489522 v 0.39887 h -0.489522 q -0.551684,0 -0.761479,-0.204615 -0.209795,-0.207205 -0.209795,-0.751118 v -1.574759 h -0.349659 v -0.370379 h 0.349659 v -0.82364 z m 4.763125,-0.305628 v 0.39628 h -0.455851 q -0.256416,0 -0.357429,0.103602 -0.09842,0.103603 -0.09842,0.37297 v 0.256416 h 0.784789 v 0.370379 h -0.784789 v 2.530492 h -0.479162 v -2.530492 h -0.455851 v -0.370379 h 0.455851 v -0.202025 q 0,-0.484342 0.225336,-0.704497 0.225335,-0.222746 0.714857,-0.222746 z m 1.522957,1.463386 q -0.383329,0 -0.606074,0.300447 -0.222746,0.297858 -0.222746,0.81846 0,0.520603 0.220155,0.821051 0.222746,0.297857 0.608665,0.297857 0.38074,0 0.603485,-0.300447 0.222746,-0.300448 0.222746,-0.818461 0,-0.515422 -0.222746,-0.81587 -0.222745,-0.303037 -0.603485,-0.303037 z m 0,-0.40405 q 0.621616,0 0.976454,0.40405 0.354839,0.40405 0.354839,1.118907 0,0.712268 -0.354839,1.118908 -0.354838,0.40405 -0.976454,0.40405 -0.624205,0 -0.979044,-0.40405 -0.352248,-0.40664 -0.352248,-1.118908 0,-0.714857 0.352248,-1.118907 0.354839,-0.40405 0.979044,-0.40405 z m 3.802214,0.515423 q -0.08029,-0.04662 -0.176124,-0.06734 -0.09324,-0.02331 -0.207205,-0.02331 -0.40405,0 -0.621616,0.264186 -0.214975,0.261596 -0.214975,0.753708 v 1.528138 h -0.479162 v -2.900871 h 0.479162 v 0.450671 q 0.150224,-0.264187 0.3911,-0.3911 0.240875,-0.129503 0.585354,-0.129503 0.04921,0 0.108783,0.0078 0.05957,0.0052 0.132093,0.01813 z m 4.597362,0.704497 v 1.750883 h -0.476572 v -1.735343 q 0,-0.41182 -0.160583,-0.616435 -0.160584,-0.204615 -0.481752,-0.204615 -0.38592,0 -0.608665,0.246056 -0.222746,0.246056 -0.222746,0.670827 v 1.63951 h -0.479161 v -2.900871 h 0.479161 v 0.450671 q 0.170945,-0.261597 0.40146,-0.3911 0.233106,-0.129503 0.536143,-0.129503 0.499883,0 0.756299,0.310808 0.256416,0.308217 0.256416,0.909112 z m 2.074643,-0.81587 q -0.38333,0 -0.606075,0.300447 -0.222746,0.297858 -0.222746,0.81846 0,0.520603 0.220156,0.821051 0.222745,0.297857 0.608665,0.297857 0.380739,0 0.603485,-0.300447 0.222745,-0.300448 0.222745,-0.818461 0,-0.515422 -0.222745,-0.81587 -0.222746,-0.303037 -0.603485,-0.303037 z m 0,-0.40405 q 0.621615,0 0.976454,0.40405 0.354838,0.40405 0.354838,1.118907 0,0.712268 -0.354838,1.118908 -0.354839,0.40405 -0.976454,0.40405 -0.624206,0 -0.979044,-0.40405 -0.352249,-0.40664 -0.352249,-1.118908 0,-0.714857 0.352249,-1.118907 0.354838,-0.40405 0.979044,-0.40405 z m 1.844125,0.06993 h 0.476572 l 0.595715,2.263715 0.593124,-2.263715 h 0.562048 l 0.59571,2.263715 0.59313,-2.263715 h 0.47657 l -0.75889,2.900871 h -0.56205 l -0.624201,-2.377678 -0.626795,2.377678 H 98.71134 Z m 4.195899,2.242995 h 0.54651 v 0.657876 h -0.54651 z m 1.68614,0 h 0.5465 v 0.657876 h -0.5465 z m 1.68613,0 h 0.5465 v 0.657876 h -0.5465 z m 1.54367,-3.367083 h 0.41441 q 0.38851,0.611255 0.58018,1.19661 0.19425,0.585354 0.19425,1.162938 0,0.580174 -0.19425,1.168119 -0.19167,0.587944 -0.58018,1.196609 h -0.41441 q 0.34448,-0.593124 0.51284,-1.178479 0.17094,-0.587944 0.17094,-1.186249 0,-0.598305 -0.17094,-1.181069 -0.16836,-0.582764 -0.51284,-1.178479 z"
       id="text1-6"
       style="font-size:5.30445px;font-family:'Nachlieli CLM';-inkscape-font-specification:'Nachlieli CLM, Normal';fill:#ffffff;stroke:#000000;stroke-width:0;stroke-linejoin:bevel;paint-order:stroke fill markers"
       aria-label="(At least for now...)" />
  </g>
</svg>
